<?xml version="1.0" encoding="utf-8"?>
<!-- Generator: Adobe Illustrator 15.0.0, SVG Export Plug-In . SVG Version: 6.00 Build 0)  -->
<!DOCTYPE svg PUBLIC "-//W3C//DTD SVG 1.1//EN" "http://www.w3.org/Graphics/SVG/1.1/DTD/svg11.dtd">
<svg version="1.1" id="Layer_1" xmlns="http://www.w3.org/2000/svg" xmlns:xlink="http://www.w3.org/1999/xlink" x="0px" y="0px"
	 width="23.797px" height="17.39px" viewBox="842.602 1056.711 23.797 17.39"
	 enable-background="new 842.602 1056.711 23.797 17.39" xml:space="preserve">
<g transform="translate(0,-952.36218)">
	<path d="M866.398,2017.768c0-0.212-0.128-0.493-0.258-0.629l-7.322-7.78c-0.342-0.354-0.896-0.395-1.294-0.035
		c-0.356,0.32-0.365,0.945-0.036,1.294l5.878,6.235h-19.849c-0.506,0-0.916,0.409-0.916,0.915s0.41,0.915,0.916,0.915h19.849
		l-5.878,6.235c-0.329,0.349-0.306,0.958,0.036,1.294c0.36,0.355,0.957,0.323,1.294-0.035l7.322-7.779
		C866.355,2018.186,866.395,2017.982,866.398,2017.768L866.398,2017.768z"/>
</g>
</svg>
